<?xml version="1.0" encoding="utf-8"?>
<!-- Generator: Adobe Illustrator 16.0.0, SVG Export Plug-In . SVG Version: 6.00 Build 0)  -->
<!DOCTYPE svg PUBLIC "-//W3C//DTD SVG 1.1//EN" "http://www.w3.org/Graphics/SVG/1.1/DTD/svg11.dtd">
<svg version="1.1" id="Layer_1" xmlns="http://www.w3.org/2000/svg" xmlns:xlink="http://www.w3.org/1999/xlink" x="0px" y="0px"
	 width="60px" height="60px" viewBox="0 0 60 60" enable-background="new 0 0 60 60" xml:space="preserve">
<polyline fill="none" stroke="#5500FF" stroke-width="1.5" stroke-miterlimit="10" points="40.844,10.551 19.156,30.101 
	40.618,49.449 "/>
<g>
	<path fill="#5500FF" d="M55,1.5c1.93,0,3.5,1.57,3.5,3.5v50c0,1.93-1.57,3.5-3.5,3.5H5c-1.93,0-3.5-1.57-3.5-3.5V5
		c0-1.93,1.57-3.5,3.5-3.5H55 M55,0H5C2.238,0,0,2.238,0,5v50c0,2.762,2.238,5,5,5h50c2.762,0,5-2.238,5-5V5C60,2.238,57.762,0,55,0
		L55,0z"/>
</g>
</svg>
